<svg version="1.1" id="Layer_1" xmlns="http://www.w3.org/2000/svg" xmlns:xlink="http://www.w3.org/1999/xlink" x="0px" y="0px"
	 viewBox="-42 -62.5 123 149" enable-background="new -42 -62.5 123 149" xml:space="preserve">
<g display="none">
	<path display="inline" fill="#FFFFFF" stroke="#C9C49B" stroke-width="3" stroke-miterlimit="10" d="M24,11.8L24,16
		c0,0.1,0,0.2-0.1,0.2h-0.4c-0.1-0.1-0.1-0.1-0.1-0.2l0-4.2l-0.1-4.2c0-0.2,0.1-0.3,0.3-0.3c0.1,0,0.2,0,0.2,0.1
		c0.1,0.1,0.1,0.1,0.1,0.2L24,11.8z"/>
	<path display="inline" fill="#C9C49B" d="M23.4,8c0.1,0,0.6-0.3,0.6-0.3v0.4l-0.6,0.3V8z"/>
	<path display="inline" fill="#FFFFFF" stroke="#C9C49B" stroke-width="3" stroke-miterlimit="10" d="M23.9,11.7h-0.4
		c0-0.2,0.1-0.3,0.2-0.3C23.8,11.3,23.9,11.5,23.9,11.7z"/>
	
		<line display="inline" fill="none" stroke="#C9C49B" stroke-width="3" stroke-miterlimit="10" x1="23.5" y1="12.4" x2="23.9" y2="12.4"/>
	<path display="inline" fill="#FFFFFF" stroke="#C9C49B" stroke-width="3" stroke-miterlimit="10" d="M23.5,12.9h0.5
		c0,0.4-0.1,0.6-0.2,0.6S23.5,13.2,23.5,12.9z"/>
	<polygon display="inline" fill="#FFFFFF" stroke="#C9C49B" stroke-width="3" stroke-miterlimit="10" points="24,8.8 23.4,9.1 
		23.4,9.4 24,9.1 	"/>
	<path display="inline" fill="#FFFFFF" stroke="#C9C49B" stroke-width="3" stroke-miterlimit="10" d="M22.9,11.8l0.1,4.2
		c0,0.1,0,0.2-0.1,0.2h-0.4c-0.1-0.1-0.1-0.1-0.1-0.2l0-4.2l-0.1-4.2c0-0.2,0.1-0.3,0.3-0.3c0.1,0,0.2,0,0.2,0.1
		C22.9,7.5,23,7.5,23,7.6L22.9,11.8z"/>
	<path display="inline" fill="#C9C49B" d="M22.3,8C22.4,8,23,7.7,23,7.7v0.4l-0.6,0.3V8z"/>
	<path display="inline" fill="#FFFFFF" stroke="#C9C49B" stroke-width="3" stroke-miterlimit="10" d="M22.8,11.7h-0.4
		c0-0.2,0.1-0.3,0.2-0.3C22.7,11.3,22.8,11.5,22.8,11.7z"/>
	
		<line display="inline" fill="none" stroke="#C9C49B" stroke-width="3" stroke-miterlimit="10" x1="22.4" y1="12.4" x2="22.9" y2="12.4"/>
	<path display="inline" fill="#FFFFFF" stroke="#C9C49B" stroke-width="3" stroke-miterlimit="10" d="M22.4,12.9h0.5
		c0,0.4-0.1,0.6-0.2,0.6S22.4,13.2,22.4,12.9z"/>
	<polygon display="inline" fill="#FFFFFF" stroke="#C9C49B" stroke-width="3" stroke-miterlimit="10" points="22.9,8.8 22.4,9.1 
		22.4,9.4 22.9,9.1 	"/>
	<polygon display="inline" fill="#C9C49B" points="22.3,16 22.9,16 22.9,16.1 22.8,16.3 22.4,16.3 22.3,16.1 	"/>
	<polygon display="inline" fill="#C9C49B" points="23.5,16 24,16 24,16.1 24,16.3 23.6,16.3 23.5,16.1 	"/>
	<rect x="23.5" y="11.7" display="inline" fill="#C9C49B" width="0.4" height="0.2"/>
	<rect x="23.5" y="11.7" display="inline" fill="#C9C49B" width="0.4" height="0.2"/>
	<rect x="22.4" y="11.7" display="inline" fill="#C9C49B" width="0.4" height="0.2"/>
	
		<rect x="24.5" y="9.6" display="inline" fill="#FFFFFF" stroke="#C9C49B" stroke-width="3" stroke-miterlimit="10" width="0.1" height="6"/>
	<rect x="24.4" y="15.2" display="inline" fill="#C9C49B" width="0.4" height="0.2"/>
	<path display="inline" fill="#C9C49B" d="M24.6,16.1L24.6,16.1c-0.1,0-0.1-0.1-0.1-0.2v-0.3c0,0,0-0.1,0.1-0.1h0.1
		c0,0,0.1,0,0.1,0.1V16C24.7,16,24.7,16.1,24.6,16.1z"/>
	<path display="inline" fill="#C9C49B" d="M24.7,9.8h-0.2c-0.1,0-0.1,0-0.1-0.1V8.9c0-0.1,0-0.1,0.1-0.1h0.2c0.1,0,0.1,0,0.1,0.1
		v0.8C24.8,9.8,24.7,9.8,24.7,9.8z"/>
	<path display="inline" fill="#FFFFFF" stroke="#C9C49B" stroke-width="3" stroke-miterlimit="10" d="M24.8,9c0,0,0.2,0.1,0.2,0.3
		c0,0.3,0.1,0.4,0.1,0.6s0,0.2-0.1,0.3c-0.1,0-0.1-0.1-0.1-0.3c0-0.1,0.1-0.3,0.1-0.5C24.9,9.3,24.7,9.1,24.8,9
		C24.7,9,24.8,9,24.8,9z"/>
	
		<rect x="21.7" y="9.6" display="inline" fill="#FFFFFF" stroke="#C9C49B" stroke-width="3" stroke-miterlimit="10" width="0.1" height="6"/>
	<rect x="21.6" y="15.2" display="inline" fill="#C9C49B" width="0.4" height="0.2"/>
	<path display="inline" fill="#C9C49B" d="M21.8,16.1L21.8,16.1c0.1,0,0.1-0.1,0.1-0.2v-0.3c0,0,0-0.1-0.1-0.1h-0.1
		c0,0-0.1,0-0.1,0.1V16C21.7,16,21.7,16.1,21.8,16.1z"/>
	<path display="inline" fill="#C9C49B" d="M21.7,9.8h0.2c0.1,0,0.1,0,0.1-0.1V8.9c0-0.1,0-0.1-0.1-0.1h-0.2c-0.1,0-0.1,0-0.1,0.1
		v0.8C21.6,9.8,21.7,9.8,21.7,9.8z"/>
	<path display="inline" fill="#FFFFFF" stroke="#C9C49B" stroke-width="3" stroke-miterlimit="10" d="M21.6,9c0,0-0.2,0.1-0.2,0.3
		c0,0.3-0.1,0.4-0.1,0.6s0,0.2,0.1,0.3c0.1,0,0.1-0.1,0.1-0.3c0-0.1-0.1-0.3-0.1-0.5C21.5,9.3,21.7,9.1,21.6,9C21.7,9,21.6,9,21.6,9
		z"/>
	<path display="inline" fill="#FFFFFF" stroke="#C9C49B" stroke-width="3" stroke-miterlimit="10" d="M19.8,11.8l0.1,4.2
		c0,0.1,0,0.2-0.1,0.2h-0.4c-0.1-0.1-0.1-0.1-0.1-0.2l0-4.2l-0.1-4.2c0-0.2,0.1-0.3,0.3-0.3c0.1,0,0.2,0,0.2,0.1
		c0.1,0.1,0.1,0.1,0.1,0.2L19.8,11.8z"/>
	<path display="inline" fill="#FFFFFF" stroke="#C9C49B" stroke-width="3" stroke-miterlimit="10" d="M18.7,11.8l0.1,4.2
		c0,0.1,0,0.2-0.1,0.2h-0.4c-0.1-0.1-0.1-0.1-0.1-0.2l0-4.2l-0.1-4.2c0-0.2,0.1-0.3,0.3-0.3c0.1,0,0.2,0,0.2,0.1
		c0.1,0.1,0.1,0.1,0.1,0.2L18.7,11.8z"/>
</g>
<g id="Layer_1_1_">
</g>
<path fill="#C9C49B" d="M63.1-1c-0.2-3.3-1.7-23.5-1.5-30.6c0.3-8.6-8.5-11.6-13-11.9l-5.6,0V-44h-6.1c-1.4-8-8.5-15-17.8-15
	S2.8-52,1.4-44h-6.2h-5l-0.2,0.2c-4.5,0.4-13,3.4-12.7,12c0.2,7.5-1.6,29.3-1.7,31c-3.1,3.8-14.9,19.3-13,33.7
	c1.8,13.6,5,30.2,13.8,39.3l0.9,0.7h5.2c2.1,5,6.7,10,14.4,10h20.3h4H42c7.8,0,12.1-5,14-10h5.6l0.9-0.7c8.8-9.2,12-25.8,13.8-39.4
	C78.3,18,65.7,2.1,63.1-1z M55.1,30.6c0.1,0.8,0.9,7.4-7.7,9.4H30V17H8v23H-9.1c-8.6-2-8-8.6-7.9-9.3l-0.1,0V3h6.2H-5v6H6V3h26v6h11
	V3h12v27.4L55.1,30.6z M13,22h12v34H13V22z M32-38v35H6v-35h11.2h4H32z M48.5-38c0.9,0,7.2,1,7.1,5.7C55.4-25.7,56.5-9,56.9-3H43
	v-35H48.5z M19.5-53c5.9,0,10.4,4,11.7,9h-10H7.9C9.1-49,13.6-53,19.5-53z M-9.7-38H-5v35h-5.8h-7.5c0.5-6,1.8-22.7,1.5-29.3
	C-16.9-37-10.6-38-9.7-38z M-31.6,32c-1.2-9,4.6-19,8.6-24.9v23.1c0,1.4,0,7.2,4,11.6V67h-1.1C-27.2,59-30.1,43.2-31.6,32z M42,77
	H21.2h-4H-3.1c-6.8,0-8.9-6.5-9.9-8v-1.6V46H8v15h22V46h21v21.4v1.7C51,70.5,48.8,77,42,77z M70.3,32C68.8,43.2,66.1,59,59,67h-2
	V41.9c5-4.4,4-10.2,4-11.6V6.4C65,12.1,71.5,22.6,70.3,32z"/>
</svg>
