<?xml version="1.0" encoding="utf-8"?>
<!-- Generator: Adobe Illustrator 18.1.1, SVG Export Plug-In . SVG Version: 6.00 Build 0)  -->
<!DOCTYPE svg PUBLIC "-//W3C//DTD SVG 1.1//EN" "http://www.w3.org/Graphics/SVG/1.1/DTD/svg11.dtd">
<svg version="1.1" id="Ebene_1" xmlns="http://www.w3.org/2000/svg" xmlns:xlink="http://www.w3.org/1999/xlink" x="0px" y="0px"
	 viewBox="0 0 127 127" enable-background="new 0 0 127 127" xml:space="preserve">
<g>
	
		<rect x="21.3" y="21.3" transform="matrix(0.7071 -0.7071 0.7071 0.7071 -26.2901 63.5305)" fill="#FFFFFF" width="84.4" height="84.4"/>
	<g>
		<polygon points="117.5,63.5 63.5,117.5 9.5,63.5 63.5,9.5 117.5,63.5 		"/>
		<path fill="#DBBB64" d="M63.5,14.3c0.9,0.9,48.2,48.2,49.2,49.2c-0.9,0.9-48.2,48.2-49.2,49.2c-0.9-0.9-48.2-48.2-49.2-49.2
			C15.3,62.6,62.6,15.3,63.5,14.3L63.5,14.3z M12.4,63.5l51.1,51.1l51.1-51.1L63.5,12.4L12.4,63.5L12.4,63.5z"/>
		<path fill="#FFFFFF" d="M49.3,37.5c0.2,0.2,0.4,0.5,0.4,0.5c0,0,0,0,0,0.1l-0.6,0.3c0,0,0,0,0,0c0,0-0.1,0-0.1-0.1
			c-0.1-0.2-0.2-0.3-0.4-0.3h-0.4c-0.3,0-0.5,0.2-0.5,0.5v1.9c0,0.3,0.2,0.5,0.5,0.5h0.3c0.3,0,0.5-0.2,0.5-0.5v-0.5
			c0,0,0-0.1-0.1-0.1h-0.6c0,0-0.1,0-0.1-0.1v-0.5c0,0,0-0.1,0.1-0.1h1.3c0,0,0.1,0,0.1,0.1v1.2c0,0.7-0.5,1.1-1.2,1.1h-0.3
			c-0.7,0-1.2-0.5-1.2-1.1v-1.9c0-0.7,0.5-1.1,1.2-1.1h0.4C48.9,37.2,49.1,37.3,49.3,37.5L49.3,37.5L49.3,37.5z"/>
		<path fill="#FFFFFF" d="M51.7,41.4c-0.7,0-1.2-0.5-1.2-1.1v-2.9c0,0,0-0.1,0.1-0.1h0.6c0,0,0.1,0,0.1,0.1v2.9
			c0,0.3,0.2,0.5,0.5,0.5h0.3c0.3,0,0.5-0.2,0.5-0.5v-2.9c0,0,0-0.1,0.1-0.1h0.6c0,0,0.1,0,0.1,0.1v2.9c0,0.7-0.5,1.1-1.2,1.1H51.7
			L51.7,41.4z"/>
		<path fill="#FFFFFF" d="M66.7,41.3C66.6,41.3,66.6,41.3,66.7,41.3l-1.4-2.6l0,2.5c0,0,0,0.1-0.1,0.1h-0.6c0,0-0.1,0-0.1-0.1v-3.9
			c0,0,0-0.1,0.1-0.1h0.5c0.1,0,0.1,0,0.1,0.1l1.3,2.6l0-2.6c0,0,0-0.1,0.1-0.1h0.6c0,0,0.1,0,0.1,0.1v3.9c0,0,0,0.1-0.1,0.1
			L66.7,41.3L66.7,41.3z"/>
		<path fill="#FFFFFF" d="M69.5,38C69.4,38,69.4,38,69.5,38l-0.1,3.3c0,0,0,0.1-0.1,0.1h-0.6c0,0-0.1,0-0.1-0.1v-3.2
			c0,0,0-0.1-0.1-0.1h-0.7c0,0-0.1,0-0.1-0.1v-0.5c0,0,0-0.1,0.1-0.1h2.2c0,0,0.1,0,0.1,0.1v0.5c0,0,0,0.1-0.1,0.1H69.5L69.5,38z"/>
		<path fill="#FFFFFF" d="M71,41.3C70.9,41.3,70.9,41.3,71,41.3l-0.1-3.9c0,0,0-0.1,0.1-0.1h2.2c0,0,0.1,0,0.1,0.1v0.5
			c0,0,0,0.1-0.1,0.1h-1.5c0,0-0.1,0-0.1,0.1v0.8c0,0,0,0.1,0.1,0.1h1.2c0,0,0.1,0,0.1,0.1v0.5c0,0,0,0.1-0.1,0.1h-1.2
			c0,0-0.1,0-0.1,0.1v0.9c0,0,0,0.1,0.1,0.1h1.5c0,0,0.1,0,0.1,0.1v0.5c0,0,0,0.1-0.1,0.1H71L71,41.3z"/>
		<path fill="#FFFFFF" d="M79.3,38.5c0-0.2-0.2-0.5-0.5-0.5h-0.7c0,0-0.1,0-0.1,0.1v2.5c0,0,0,0.1,0.1,0.1h0.7
			c0.3,0,0.5-0.2,0.5-0.5V38.5L79.3,38.5z M77.4,41.3C77.3,41.3,77.3,41.3,77.4,41.3l-0.1-3.9c0,0,0-0.1,0.1-0.1h1.4
			c0.7,0,1.2,0.5,1.2,1.2v1.6c0,0.7-0.5,1.2-1.2,1.2H77.4L77.4,41.3z"/>
		<path fill="#FFFFFF" d="M59.5,38.5c0-0.2-0.2-0.5-0.5-0.5h-0.6c0,0-0.1,0-0.1,0.1v1c0,0,0,0.1,0.1,0.1H59c0.2,0,0.5-0.2,0.5-0.5
			V38.5L59.5,38.5z M60.2,41.3h-0.7c0,0-0.1,0-0.1-0.1l-0.6-1.4c0,0,0-0.1-0.1-0.1h-0.4c0,0-0.1,0-0.1,0.1v1.4c0,0,0,0.1-0.1,0.1
			h-0.6c0,0-0.1,0-0.1-0.1v-3.9c0,0,0-0.1,0.1-0.1H59c0.7,0,1.2,0.4,1.2,1.2v0.2c0,0.5-0.4,0.8-0.6,1L60.2,41.3
			C60.3,41.3,60.3,41.3,60.2,41.3L60.2,41.3z"/>
		<path fill="#FFFFFF" d="M55.4,38.5c0-0.2-0.1-0.4-0.1-0.4s0,0.3-0.1,0.4l-0.4,1.3c0,0.1,0,0.1,0.1,0.1h0.7c0.1,0,0.1,0,0.1-0.1
			L55.4,38.5L55.4,38.5z M56.9,41.3h-0.7c0,0-0.1,0-0.1,0L56,40.6c0,0,0,0-0.1,0h-1.2c0,0-0.1,0-0.1,0l-0.2,0.7c0,0,0,0-0.1,0h-0.6
			c-0.1,0-0.1,0-0.1-0.1l1.2-3.9c0,0,0,0,0.1,0h0.7c0,0,0.1,0,0.1,0L56.9,41.3C57,41.3,57,41.3,56.9,41.3L56.9,41.3z"/>
		<path fill="#FFFFFF" d="M62.4,38.5c0-0.2-0.1-0.4-0.1-0.4s0,0.3-0.1,0.4l-0.4,1.3c0,0.1,0,0.1,0.1,0.1h0.7c0.1,0,0.1,0,0.1-0.1
			L62.4,38.5L62.4,38.5z M63.9,41.3h-0.7c0,0-0.1,0-0.1,0L63,40.6c0,0,0,0-0.1,0h-1.2c0,0-0.1,0-0.1,0l-0.2,0.7c0,0,0,0-0.1,0h-0.6
			c-0.1,0-0.1,0-0.1-0.1l1.2-3.9c0,0,0,0,0.1,0h0.7c0,0,0.1,0,0.1,0L63.9,41.3C63.9,41.3,63.9,41.3,63.9,41.3L63.9,41.3z"/>
		<path fill="#FFFFFF" d="M74.2,41.3C74.1,41.3,74.1,41.3,74.2,41.3l-0.1-3.9c0,0,0-0.1,0.1-0.1h2.2c0,0,0.1,0,0.1,0.1v0.5
			c0,0,0,0.1-0.1,0.1h-1.5c0,0-0.1,0-0.1,0.1v0.8c0,0,0,0.1,0.1,0.1h1.2c0,0,0.1,0,0.1,0.1v0.5c0,0,0,0.1-0.1,0.1h-1.2
			c0,0-0.1,0-0.1,0.1v0.9c0,0,0,0.1,0.1,0.1h1.5c0,0,0.1,0,0.1,0.1v0.5c0,0,0,0.1-0.1,0.1H74.2L74.2,41.3z"/>
		<path fill="#FFFFFF" d="M52.6,49.1h-0.7c-0.1,0-0.1,0-0.1-0.1l-0.9-1.6c0,0-0.1,0-0.1,0l-0.3,0.3v1.3c0,0,0,0.1-0.1,0.1h-0.6
			c0,0-0.1,0-0.1-0.1v-3.9c0,0,0-0.1,0.1-0.1h0.6c0,0,0.1,0,0.1,0.1v1.4c0,0.1,0.1,0.1,0.1,0l1.1-1.5c0,0,0.1-0.1,0.1-0.1h0.7
			c0.1,0,0.1,0,0.1,0.1l-1.3,1.6c0,0,0,0,0,0.1L52.6,49.1C52.7,49.1,52.7,49.1,52.6,49.1L52.6,49.1z"/>
		<path fill="#FFFFFF" d="M65.7,47.5v1.6c0,0,0,0.1-0.1,0.1H65c0,0-0.1,0-0.1-0.1v-1.6l-1.1-2.3c0-0.1,0-0.1,0.1-0.1h0.7
			c0,0,0.1,0,0.1,0.1l0.6,1.4c0,0.1,0.1,0.1,0.1,0l0.6-1.4c0,0,0.1-0.1,0.1-0.1h0.7c0.1,0,0.1,0,0.1,0.1L65.7,47.5L65.7,47.5
			L65.7,47.5z"/>
		<path fill="#FFFFFF" d="M69.2,46.1c0-0.3-0.2-0.5-0.5-0.5h-0.3c-0.3,0-0.5,0.2-0.5,0.5v1.9c0,0.3,0.2,0.5,0.5,0.5h0.3
			c0.3,0,0.5-0.2,0.5-0.5V46.1L69.2,46.1z M68.4,49.2c-0.7,0-1.2-0.5-1.2-1.1v-1.9c0-0.7,0.5-1.1,1.2-1.1h0.3c0.7,0,1.2,0.5,1.2,1.1
			v1.9c0,0.7-0.5,1.1-1.2,1.1H68.4L68.4,49.2z"/>
		<path fill="#FFFFFF" d="M61.5,46.2c0-0.2-0.2-0.5-0.5-0.5h-0.6c0,0-0.1,0-0.1,0.1v1.1c0,0,0,0.1,0.1,0.1H61c0.3,0,0.5-0.2,0.5-0.5
			V46.2L61.5,46.2z M62.2,46.5c0,0.7-0.5,1.1-1.2,1.1h-0.6c0,0-0.1,0-0.1,0.1v1.3c0,0,0,0.1-0.1,0.1h-0.6c0,0-0.1,0-0.1-0.1v-3.9
			c0,0,0-0.1,0.1-0.1H61c0.6,0,1.2,0.4,1.2,1.2V46.5L62.2,46.5z"/>
		<path fill="#FFFFFF" d="M53.3,49.1C53.2,49.1,53.2,49.1,53.3,49.1l-0.1-3.9c0,0,0-0.1,0.1-0.1h2.2c0,0,0.1,0,0.1,0.1v0.5
			c0,0,0,0.1-0.1,0.1H54c0,0-0.1,0-0.1,0.1v0.8c0,0,0,0.1,0.1,0.1h1.2c0,0,0.1,0,0.1,0.1v0.5c0,0,0,0.1-0.1,0.1H54
			c0,0-0.1,0-0.1,0.1v0.9c0,0,0,0.1,0.1,0.1h1.5c0,0,0.1,0,0.1,0.1v0.5c0,0,0,0.1-0.1,0.1H53.3L53.3,49.1z"/>
		<path fill="#FFFFFF" d="M56.5,49.1C56.4,49.1,56.4,49.1,56.5,49.1l-0.1-3.9c0,0,0-0.1,0.1-0.1h2.2c0,0,0.1,0,0.1,0.1v0.5
			c0,0,0,0.1-0.1,0.1h-1.5c0,0-0.1,0-0.1,0.1v0.8c0,0,0,0.1,0.1,0.1h1.2c0,0,0.1,0,0.1,0.1v0.5c0,0,0,0.1-0.1,0.1h-1.2
			c0,0-0.1,0-0.1,0.1v0.9c0,0,0,0.1,0.1,0.1h1.5c0,0,0.1,0,0.1,0.1v0.5c0,0,0,0.1-0.1,0.1H56.5L56.5,49.1z"/>
		<path fill="#FFFFFF" d="M71.9,49.2c-0.7,0-1.2-0.5-1.2-1.1v-2.9c0,0,0-0.1,0.1-0.1h0.6c0,0,0.1,0,0.1,0.1v2.9
			c0,0.3,0.2,0.5,0.5,0.5h0.3c0.3,0,0.5-0.2,0.5-0.5v-2.9c0,0,0-0.1,0.1-0.1h0.6c0,0,0.1,0,0.1,0.1v2.9c0,0.7-0.5,1.1-1.2,1.1H71.9
			L71.9,49.2z"/>
		<path fill="#FFFFFF" d="M43.2,45.8C43.1,45.8,43.1,45.8,43.2,45.8l-0.1,3.3c0,0,0,0.1-0.1,0.1h-0.6c0,0-0.1,0-0.1-0.1v-3.2
			c0,0,0-0.1-0.1-0.1h-0.7c0,0-0.1,0-0.1-0.1v-0.5c0,0,0-0.1,0.1-0.1h2.2c0,0,0.1,0,0.1,0.1v0.5c0,0,0,0.1-0.1,0.1H43.2L43.2,45.8z"
			/>
		<path fill="#FFFFFF" d="M78,46.2c0-0.2-0.2-0.5-0.5-0.5h-0.7c0,0-0.1,0-0.1,0.1v2.5c0,0,0,0.1,0.1,0.1h0.7c0.3,0,0.5-0.2,0.5-0.5
			V46.2L78,46.2z M76.1,49.1C76.1,49.1,76.1,49.1,76.1,49.1l-0.1-3.9c0,0,0-0.1,0.1-0.1h1.4c0.7,0,1.2,0.5,1.2,1.2v1.6
			c0,0.7-0.5,1.2-1.2,1.2H76.1L76.1,49.1z"/>
		<path fill="#FFFFFF" d="M81.5,46.2c0-0.2-0.2-0.5-0.5-0.5h-0.6c0,0-0.1,0-0.1,0.1v1c0,0,0,0.1,0.1,0.1h0.6c0.2,0,0.5-0.2,0.5-0.5
			V46.2L81.5,46.2z M82.3,49.1h-0.7c0,0-0.1,0-0.1-0.1l-0.6-1.4c0,0,0-0.1-0.1-0.1h-0.4c0,0-0.1,0-0.1,0.1v1.4c0,0,0,0.1-0.1,0.1
			h-0.6c0,0-0.1,0-0.1-0.1v-3.9c0,0,0-0.1,0.1-0.1h1.4c0.7,0,1.2,0.4,1.2,1.2v0.2c0,0.5-0.4,0.8-0.6,1L82.3,49.1
			C82.4,49.1,82.3,49.1,82.3,49.1L82.3,49.1z"/>
		<path fill="#FFFFFF" d="M46.4,46.1c0-0.3-0.2-0.5-0.5-0.5h-0.3c-0.3,0-0.5,0.2-0.5,0.5v1.9c0,0.3,0.2,0.5,0.5,0.5h0.3
			c0.3,0,0.5-0.2,0.5-0.5V46.1L46.4,46.1z M45.6,49.2c-0.7,0-1.2-0.5-1.2-1.1v-1.9c0-0.7,0.5-1.1,1.2-1.1h0.3c0.7,0,1.2,0.5,1.2,1.1
			v1.9c0,0.7-0.5,1.1-1.2,1.1H45.6L45.6,49.2z"/>
		<path fill="#FFFFFF" d="M84.5,47.5v1.6c0,0,0,0.1-0.1,0.1h-0.6c0,0-0.1,0-0.1-0.1v-1.6l-1.1-2.3c0-0.1,0-0.1,0.1-0.1h0.7
			c0,0,0.1,0,0.1,0.1l0.6,1.4c0,0.1,0.1,0.1,0.1,0l0.6-1.4c0,0,0.1-0.1,0.1-0.1h0.7c0.1,0,0.1,0,0.1,0.1L84.5,47.5L84.5,47.5
			L84.5,47.5z"/>
		<path fill="#DBBB64" d="M34.1,56.8c-0.6-0.5-1.4-0.7-2.4-0.7h-1.4c-2.3,0-3.8,1.5-3.8,3.6v6.3c0,2.2,1.5,3.6,3.8,3.6h1.1
			c2.3,0,3.8-1.5,3.8-3.6V62c0-0.1-0.1-0.2-0.2-0.2h-4.2c-0.1,0-0.2,0.1-0.2,0.2v2c0,0.1,0.1,0.2,0.2,0.2h1.4c0.1,0,0.2,0.1,0.2,0.2
			v1.5c0,0.8-0.6,1.5-1.5,1.5h-0.2c-0.8,0-1.5-0.7-1.5-1.5v-6c0-0.8,0.7-1.5,1.5-1.5h0.9c0.6,0,1,0.4,1.3,1.1
			c0.1,0.2,0.2,0.3,0.3,0.3c0,0,0.1,0,0.1,0l1.8-0.9c0.1,0,0.1-0.1,0.1-0.2C35.3,58.5,34.9,57.4,34.1,56.8L34.1,56.8L34.1,56.8z"/>
		<path fill="#DBBB64" d="M66.9,56.4h-7c-0.1,0-0.2,0.1-0.2,0.2v12.6c0,0.1,0.1,0.2,0.2,0.2H67c0.1,0,0.2-0.1,0.2-0.2v-2
			c0-0.1-0.1-0.2-0.2-0.2h-4.3c-0.1,0-0.2-0.1-0.2-0.2v-2.7c0-0.1,0.1-0.2,0.2-0.2H66c0.1,0,0.2-0.1,0.2-0.2v-2
			c0-0.1-0.1-0.2-0.2-0.2h-3.3c-0.1,0-0.2-0.1-0.2-0.2V59c0-0.1,0.1-0.2,0.2-0.2h4.2c0.1,0,0.2-0.1,0.2-0.2v-2
			C67.1,56.5,67,56.4,66.9,56.4L66.9,56.4z"/>
		<path fill="#DBBB64" d="M97.4,56.7c0.1-0.2,0-0.3-0.2-0.3h-2.4c-0.2,0-0.2,0.1-0.3,0.2L92.9,60c-0.1,0.2-0.3,0.2-0.4,0l-1.6-3.4
			c-0.1-0.1-0.1-0.2-0.3-0.2H88c-0.2,0-0.3,0.1-0.2,0.3l3.1,6.1l-3.1,6.3c-0.1,0.2,0,0.3,0.2,0.3h2.4c0.2,0,0.3-0.1,0.3-0.2l1.7-3.7
			c0.1-0.2,0.3-0.2,0.4,0l1.6,3.7c0.1,0.1,0.2,0.2,0.3,0.2h2.6c0.2,0,0.3-0.1,0.2-0.3l-3.1-6.3L97.4,56.7L97.4,56.7z"/>
		<path fill="#DBBB64" d="M80,56.4c-0.1,0-0.2,0.1-0.2,0.2v12.6c0,0.1,0.1,0.2,0.2,0.2h6.2c0.2,0,0.3-0.1,0.3-0.2l1-2
			c0-0.1,0-0.2-0.1-0.2h-4.6c-0.1,0-0.2-0.1-0.2-0.2v-2.7c0-0.1,0.1-0.2,0.2-0.2h3.3c0.1,0,0.2-0.1,0.2-0.2v-2
			c0-0.1-0.1-0.2-0.2-0.2h-3.3c-0.1,0-0.2-0.1-0.2-0.2V59c0-0.1,0.1-0.2,0.2-0.2h4.6c0.1,0,0.2-0.1,0.1-0.2l-1-2
			c-0.1-0.1-0.1-0.2-0.3-0.2H80L80,56.4z"/>
		<path fill="#DBBB64" d="M68.7,61.5c-0.1,0-0.2,0.1-0.2,0.2v2c0,0.1,0.1,0.2,0.2,0.2h2.1c0.1,0,0.2-0.1,0.2-0.2v-2
			c0-0.1-0.1-0.2-0.2-0.2H68.7L68.7,61.5z"/>
		<path fill="#DBBB64" d="M70.9,56.4c-0.1,0-0.2,0.1-0.2,0.2v2c0,0.1,0.1,0.2,0.2,0.2H73c0.1,0,0.2,0.1,0.2,0.2v10.1
			c0,0.1,0.1,0.2,0.2,0.2h2.4c0.1,0,0.3-0.1,0.3-0.2V59.1c0-0.1,0.1-0.2,0.2-0.2h2.2c0.1,0,0.2-0.1,0.2-0.2v-2
			c0-0.1-0.1-0.2-0.2-0.2H70.9L70.9,56.4z"/>
		<path fill="#DBBB64" d="M43.6,65.8c0,0.8-0.6,1.5-1.5,1.5h-0.4c-0.8,0-1.5-0.7-1.5-1.5V60c0-0.8,0.7-1.5,1.5-1.5h0.4
			c0.8,0,1.5,0.6,1.5,1.5V65.8L43.6,65.8z M41.3,56.1c-2.3,0-3.8,1.5-3.8,3.6v6.3c0,2.2,1.5,3.6,3.8,3.6h1.2c2.3,0,3.8-1.5,3.8-3.6
			v-6.3c0-2.2-1.5-3.6-3.8-3.6H41.3L41.3,56.1z"/>
		<path fill="#DBBB64" d="M54.8,60.7c0,0.8-0.7,1.5-1.5,1.5h-1.6c-0.1,0-0.2-0.1-0.2-0.2v-3c0-0.1,0.1-0.2,0.2-0.2h1.6
			c0.8,0,1.5,0.7,1.5,1.5V60.7L54.8,60.7z M55.6,64c0.6-0.3,2-1.4,2-3.3v-0.5c0-2.4-1.6-3.8-3.9-3.8h-4.8c-0.1,0-0.2,0.1-0.2,0.2
			v12.6c0,0.1,0.1,0.2,0.2,0.2h2.4c0.1,0,0.2-0.1,0.2-0.2v-4.6c0-0.1,0.1-0.2,0.2-0.2h1c0.1,0,0.2,0,0.3,0.2l1.9,4.6
			c0,0.1,0.1,0.2,0.2,0.2h2.7c0.2,0,0.2-0.1,0.2-0.3L55.6,64L55.6,64z"/>
		<path fill="#DBBB64" d="M99.3,56.4c0.8,0,1.5,0.7,1.5,1.5c0,0.8-0.7,1.5-1.5,1.5c-0.8,0-1.5-0.7-1.5-1.5
			C97.9,57,98.5,56.4,99.3,56.4L99.3,56.4z M99.3,56.6c-0.7,0-1.2,0.6-1.2,1.2c0,0.7,0.5,1.2,1.2,1.2c0.7,0,1.2-0.6,1.2-1.2
			C100.6,57.2,100,56.6,99.3,56.6L99.3,56.6z"/>
		<path fill="#DBBB64" d="M99.7,57.5c0-0.1-0.1-0.2-0.2-0.2h-0.4c0,0,0,0,0,0v0.4c0,0,0,0,0,0h0.4C99.6,57.8,99.7,57.7,99.7,57.5
			L99.7,57.5L99.7,57.5z M100,58.6h-0.3c0,0,0,0,0,0L99.4,58c0,0,0,0,0,0h-0.3c0,0,0,0,0,0v0.6c0,0,0,0,0,0h-0.2c0,0,0,0,0,0v-1.5
			c0,0,0,0,0,0h0.6c0.3,0,0.5,0.2,0.5,0.5v0.1c0,0.2-0.2,0.3-0.3,0.4L100,58.6C100,58.6,100,58.6,100,58.6L100,58.6z"/>
		<path fill="#FFFFFF" d="M56.8,88.6h-0.5c-0.1,0-0.1,0,0-0.1l0.2-0.7c0-0.1,0.1-0.1,0.2-0.1h1.1c0.1,0,0.1,0,0.1,0.1L57.4,90
			c-0.1,0.3-0.4,0.6-0.7,0.6l-1.7,0c-0.4,0-0.6-0.1-0.4-0.5l0.9-3.6c0.1-0.3,0.4-0.6,0.8-0.6h2.2c0,0,0.1,0,0,0.1l-0.2,0.7
			c0,0.1,0,0.1-0.1,0.1h-1.9c0,0-0.1,0-0.1,0.1l-0.7,2.9c0,0,0,0.1,0.1,0.1h1c0,0,0.1,0,0.1-0.1L56.8,88.6
			C56.9,88.6,56.9,88.6,56.8,88.6L56.8,88.6L56.8,88.6z"/>
		<path fill="#FFFFFF" d="M58.1,90.6c-0.4,0-0.6-0.1-0.4-0.5l0.9-3.6c0.1-0.3,0.4-0.6,0.7-0.6l1.7,0c0.3,0,0.5,0.2,0.4,0.5L60.5,90
			c-0.1,0.3-0.4,0.6-0.7,0.6L58.1,90.6L58.1,90.6L58.1,90.6z M59.7,89.8C59.7,89.8,59.8,89.7,59.7,89.8l0.8-3c0,0,0-0.1-0.1-0.1h-1
			c0,0-0.1,0-0.1,0.1l-0.7,2.9c0,0,0,0.1,0.1,0.1H59.7L59.7,89.8L59.7,89.8z"/>
		<path fill="#FFFFFF" d="M63.2,88.5l0.8,2c0,0,0,0,0,0h-0.7c0,0,0,0,0,0l-0.8-2.4c0-0.1-0.1-0.1-0.1,0l-0.6,2.4
			c0,0.1,0,0.1-0.1,0.1h-0.8c-0.1,0-0.1,0,0-0.1l1.1-4.1c0.1-0.3,0.4-0.6,0.7-0.6l1.8,0c0.3,0,0.5,0.2,0.4,0.5l-0.4,1.5
			c-0.1,0.3-0.4,0.5-0.7,0.5L63.2,88.5C63.2,88.4,63.2,88.4,63.2,88.5L63.2,88.5L63.2,88.5z M63.5,87.7
			C63.5,87.7,63.5,87.7,63.5,87.7l0.3-1c0,0,0,0,0,0h-1.1c0,0,0,0,0,0l-0.2,1c0,0,0,0,0,0H63.5L63.5,87.7L63.5,87.7z"/>
		<path fill="#FFFFFF" d="M65.1,89.8C65.1,89.8,65.1,89.7,65.1,89.8l0.3-1.2c0,0,0,0,0,0H67c0,0,0,0,0,0l0.1-0.7c0,0,0,0,0,0h-1.5
			c0,0,0,0,0,0l0.2-1c0,0,0,0,0,0h1.6c0.1,0,0,0,0.1,0l0.2-0.7c0-0.1,0-0.1-0.1-0.1l-1.9,0c-0.3,0-0.6,0.2-0.7,0.6L64.2,90
			c-0.1,0.4,0,0.5,0.4,0.5l1.9,0c0,0,0,0,0,0l0.2-0.7c0,0,0,0,0,0H65.1L65.1,89.8L65.1,89.8z"/>
		<path fill="#FFFFFF" d="M73.8,82v11.6H53.3V82H73.8L73.8,82L73.8,82z M73.4,82.3H53.6v10.9h19.8V82.3L73.4,82.3L73.4,82.3z"/>
		<polygon fill="#ED1C24" points="66.1,92.5 70.9,85.9 54.4,83.7 80.9,83.7 66.1,92.5 66.1,92.5 		"/>
		<path fill="#DBBB64" d="M94.1,73.4c0,0.1-0.1,0.1-0.2,0.3c-0.1,0.1-0.3,0.2-0.5,0.2h-0.1c-0.4,0-0.7-0.3-0.7-0.7v-1.2
			c0-0.4,0.3-0.7,0.7-0.7h0.1c0.2,0,0.3,0,0.4,0.1c0.2,0.1,0.2,0.3,0.3,0.3c0,0,0,0.1,0,0.1l-0.3,0.1c0,0-0.1,0-0.1,0
			c-0.1-0.1-0.2-0.2-0.3-0.2h-0.1c-0.2,0-0.3,0.1-0.3,0.3v1.2c0,0.2,0.1,0.3,0.3,0.3h0.1c0.1,0,0.2-0.1,0.3-0.2c0,0,0,0,0.1,0
			L94.1,73.4C94.1,73.3,94.1,73.3,94.1,73.4L94.1,73.4z"/>
		<path fill="#DBBB64" d="M96.2,71.9c0,0.2,0.2,0.3,0.4,0.4c0.4,0.2,0.6,0.4,0.6,0.8c0,0.4-0.3,0.7-0.8,0.7h-0.1
			c-0.2,0-0.4-0.1-0.5-0.2c-0.1-0.1-0.2-0.2-0.2-0.3c0,0,0,0,0-0.1l0.3-0.2c0,0,0,0,0.1,0c0,0.1,0.2,0.2,0.3,0.2h0.1
			c0.1,0,0.3-0.1,0.3-0.3c0-0.2-0.2-0.3-0.4-0.4c-0.4-0.2-0.6-0.4-0.6-0.8c0-0.4,0.3-0.7,0.7-0.7h0.1c0.2,0,0.3,0,0.4,0.1
			c0.1,0.1,0.2,0.2,0.2,0.3c0,0,0,0.1,0,0.1l-0.3,0.1c0,0-0.1,0-0.1,0c-0.1-0.1-0.2-0.2-0.3-0.2h-0.1C96.4,71.7,96.2,71.8,96.2,71.9
			L96.2,71.9L96.2,71.9z"/>
		<path fill="#DBBB64" d="M91.1,73.8c-0.4,0-0.7-0.3-0.7-0.7v-1.8c0,0,0,0,0,0h0.4c0,0,0,0,0,0v1.8c0,0.2,0.1,0.3,0.3,0.3h0.2
			c0.2,0,0.3-0.1,0.3-0.3v-1.8c0,0,0,0,0,0H92c0,0,0,0,0,0v1.8c0,0.4-0.3,0.7-0.7,0.7H91.1L91.1,73.8z"/>
		<path fill="#DBBB64" d="M95.2,71.7C95.2,71.7,95.2,71.7,95.2,71.7l0,2c0,0,0,0,0,0h-0.4c0,0,0,0,0,0v-2c0,0,0,0,0,0h-0.4
			c0,0,0,0,0,0v-0.3c0,0,0,0,0,0h1.4c0,0,0,0,0,0v0.3c0,0,0,0,0,0H95.2L95.2,71.7z"/>
		<path fill="#DBBB64" d="M83.6,72.2c0,0.4-0.3,0.7-0.7,0.7h-0.4c0,0,0,0,0,0v0.8c0,0,0,0,0,0h-0.4c0,0,0,0,0,0v-2.4c0,0,0,0,0,0
			h0.8c0.4,0,0.7,0.2,0.7,0.7V72.2L83.6,72.2z M83.2,72c0-0.2-0.1-0.3-0.3-0.3h-0.4c0,0,0,0,0,0v0.7c0,0,0,0,0,0h0.4
			c0.2,0,0.3-0.1,0.3-0.3V72L83.2,72z"/>
		<path fill="#DBBB64" d="M87.3,71.9c0-0.2-0.1-0.3-0.3-0.3h-0.2c-0.2,0-0.3,0.1-0.3,0.3v1.2c0,0.2,0.1,0.3,0.3,0.3H87
			c0.2,0,0.3-0.1,0.3-0.3V71.9L87.3,71.9z M86.8,73.8c-0.4,0-0.7-0.3-0.7-0.7v-1.2c0-0.4,0.3-0.7,0.7-0.7H87c0.4,0,0.7,0.3,0.7,0.7
			v1.2c0,0.4-0.3,0.7-0.7,0.7H86.8L86.8,73.8z"/>
		<path fill="#DBBB64" d="M88.3,73.8C88.3,73.8,88.3,73.7,88.3,73.8l0-2.4c0,0,0,0,0,0h0.9c0.4,0,0.7,0.3,0.7,0.7v1
			c0,0.4-0.3,0.7-0.7,0.7H88.3L88.3,73.8z M89.5,72c0-0.2-0.1-0.3-0.3-0.3h-0.4c0,0,0,0,0,0v1.6c0,0,0,0,0,0h0.4
			c0.2,0,0.3-0.1,0.3-0.3V72L89.5,72z"/>
		<path fill="#DBBB64" d="M85.2,72c0-0.2-0.1-0.3-0.3-0.3h-0.4c0,0,0,0,0,0v0.6c0,0,0,0,0,0h0.4c0.2,0,0.3-0.1,0.3-0.3V72L85.2,72z
			 M85.7,73.8h-0.4c0,0,0,0-0.1,0l-0.4-0.9c0,0,0,0-0.1,0h-0.2c0,0,0,0,0,0v0.9c0,0,0,0,0,0h-0.4c0,0,0,0,0,0v-2.4c0,0,0,0,0,0h0.8
			c0.4,0,0.7,0.3,0.7,0.7v0.1c0,0.3-0.2,0.5-0.4,0.6L85.7,73.8C85.7,73.7,85.7,73.8,85.7,73.8L85.7,73.8z"/>
	</g>
</g>
</svg>
