<svg version="1.1" id="Capa_1" xmlns:sketch="http://www.bohemiancoding.com/sketch/ns"
	 xmlns="http://www.w3.org/2000/svg" xmlns:xlink="http://www.w3.org/1999/xlink" x="0px" y="0px" viewBox="0 0 32 32"
	 enable-background="new 0 0 32 32" xml:space="preserve">
<title>icon 48 sports shoe</title>
<path d="M27,11c-2.3,0-2,2-5,2s-2.5-2-4-2c-1.1,0-2.2,0.4-3.1,1l-0.5-0.8l-0.8,0.5l0.5,0.8c-0.1,0.1-0.3,0.2-0.4,0.3l-0.5-0.7
	l-0.8,0.5l0.5,0.8c-0.1,0.1-0.3,0.2-0.4,0.3l-0.5-0.8l-0.8,0.5l0.6,0.9c-0.2,0.1-0.3,0.2-0.4,0.3l-0.6-0.9l-0.8,0.5l0.5,0.7
	c-0.1,0-0.2,0-0.3,0c-2,0-3,0-3,0c-1.7,0-3,1.3-3,3c0,2.2,1.8,4,4,4h19c1.1,0,2-0.9,2-2C29,20,29.3,11,27,11z M18,12
	c0.1,0,0.2,0,0.3,0.2c0,0,0.3,0.3,0.3,0.4c0.8,0.9,1.7,1.3,3.3,1.3c1.5,0,2.4-0.4,3.4-1.2c0,0,0.1-0.1,0.2-0.2
	c0.5-0.4,0.8-0.6,1.4-0.6c0,0,0.1,0.2,0.3,0.7c0.1,0.1,0.1,0.2,0.1,0.2c0,0,0,0,0,0s0,0,0,0c0,0-0.3,0.1-0.3,0.2
	c-0.3,0.2-0.7,0.5-1.1,0.7c-1.3,0.7-2.8,1.2-4.5,1.2c-1.6,0-2.9-0.6-3.9-1.6c-0.3-0.3-0.8-1-0.8-1l-0.1-0.2C17.1,12.1,17.6,12,18,12
	z M10,16c0.3,0,0.6,0,0.9-0.1l0.4,0.7l0.8-0.5l-0.4-0.6c0.1-0.1,0.2-0.1,0.4-0.2c0,0,0,0,0.1,0l0.4,0.6l0.8-0.5L13,14.6
	c0,0,0,0,0.1-0.1c0,0,0.2-0.1,0.4-0.3l0.4,0.7l0.8-0.5l-0.5-0.8c0.1-0.1,0.3-0.2,0.4-0.3l0.5,0.7l0.8-0.5l-0.5-0.7
	c0.1-0.1,0.2-0.1,0.3-0.2l0,0c0,0,0.6,0.9,1.1,1.4c1.2,1.2,2.7,1.9,4.6,1.9c1.8,0,3.5-0.5,5-1.3c0.4-0.2,1-0.6,1.1-0.7
	c0.1,0.5,0.2,1,0.2,1.6c0.1,0.8,0.1,1.6,0.1,2.4h-6c-1.9,0-2.5,0-4.5,0.3c0-0.1-0.1-0.3-0.2-0.5C17.1,17.3,16.6,17,16,17h-5.5
	c-0.7,0-1.1-0.3-1.3-0.7c0-0.1-0.1-0.2-0.1-0.3C9.3,16,9.6,16,10,16z M5.2,19C5.1,18.7,5,18.4,5,18c0-1.1,0.9-2,2-2c0,0,0,0,0.2,0
	c0.4,0,0.6,0,0.8,0c0.1,0.3,0.2,0.6,0.3,0.7c0.4,0.8,1.1,1.3,2.2,1.3H16c0.2,0,0.4,0.1,0.4,0.2c0.1,0.1,0.1,0.2,0.1,0.3
	C15.2,18.8,14.2,19,13,19H5.2z M28,19.8c0,0.1,0,0.2,0,0.2c0,0.6-0.5,1-1,1H8c-0.9,0-1.7-0.4-2.2-1H13c1.4,0,2.4-0.3,4.3-0.7
	C19.5,19,20.9,19,22,19h6C28,19.2,28,19.5,28,19.8z"/>
</svg>
