<?xml version="1.0" encoding="utf-8"?>
<!-- Generator: Adobe Illustrator 18.1.1, SVG Export Plug-In . SVG Version: 6.00 Build 0)  -->
<!DOCTYPE svg PUBLIC "-//W3C//DTD SVG 1.1//EN" "http://www.w3.org/Graphics/SVG/1.1/DTD/svg11.dtd">
<svg version="1.1" id="Layer_1" xmlns="http://www.w3.org/2000/svg" xmlns:xlink="http://www.w3.org/1999/xlink" x="0px" y="0px"
	 viewBox="16.2 11.4 2.3 3" enable-background="new 16.2 11.4 2.3 3" xml:space="preserve">
<g display="none">
	<path display="inline" fill="#FFFFFF" stroke="#C9C49B" stroke-width="3" stroke-miterlimit="10" d="M24,11.8L24,16
		c0,0.1,0,0.2-0.1,0.2h-0.4c-0.1-0.1-0.1-0.1-0.1-0.2l0-4.2l-0.1-4.2c0-0.2,0.1-0.3,0.3-0.3c0.1,0,0.2,0,0.2,0.1
		c0.1,0.1,0.1,0.1,0.1,0.2L24,11.8z"/>
	<path display="inline" fill="#C9C49B" d="M23.4,8c0.1,0,0.6-0.3,0.6-0.3v0.4l-0.6,0.3V8z"/>
	<path display="inline" fill="#FFFFFF" stroke="#C9C49B" stroke-width="3" stroke-miterlimit="10" d="M23.9,11.7h-0.4
		c0-0.2,0.1-0.3,0.2-0.3C23.8,11.3,23.9,11.5,23.9,11.7z"/>
	
		<line display="inline" fill="none" stroke="#C9C49B" stroke-width="3" stroke-miterlimit="10" x1="23.5" y1="12.4" x2="23.9" y2="12.4"/>
	<path display="inline" fill="#FFFFFF" stroke="#C9C49B" stroke-width="3" stroke-miterlimit="10" d="M23.5,12.9h0.5
		c0,0.4-0.1,0.6-0.2,0.6S23.5,13.2,23.5,12.9z"/>
	<polygon display="inline" fill="#FFFFFF" stroke="#C9C49B" stroke-width="3" stroke-miterlimit="10" points="24,8.8 23.4,9.1 
		23.4,9.4 24,9.1 	"/>
	<path display="inline" fill="#FFFFFF" stroke="#C9C49B" stroke-width="3" stroke-miterlimit="10" d="M22.9,11.8l0.1,4.2
		c0,0.1,0,0.2-0.1,0.2h-0.4c-0.1-0.1-0.1-0.1-0.1-0.2l0-4.2l-0.1-4.2c0-0.2,0.1-0.3,0.3-0.3c0.1,0,0.2,0,0.2,0.1
		C22.9,7.5,23,7.5,23,7.6L22.9,11.8z"/>
	<path display="inline" fill="#C9C49B" d="M22.3,8C22.4,8,23,7.7,23,7.7v0.4l-0.6,0.3V8z"/>
	<path display="inline" fill="#FFFFFF" stroke="#C9C49B" stroke-width="3" stroke-miterlimit="10" d="M22.8,11.7h-0.4
		c0-0.2,0.1-0.3,0.2-0.3C22.7,11.3,22.8,11.5,22.8,11.7z"/>
	
		<line display="inline" fill="none" stroke="#C9C49B" stroke-width="3" stroke-miterlimit="10" x1="22.4" y1="12.4" x2="22.9" y2="12.4"/>
	<path display="inline" fill="#FFFFFF" stroke="#C9C49B" stroke-width="3" stroke-miterlimit="10" d="M22.4,12.9h0.5
		c0,0.4-0.1,0.6-0.2,0.6S22.4,13.2,22.4,12.9z"/>
	<polygon display="inline" fill="#FFFFFF" stroke="#C9C49B" stroke-width="3" stroke-miterlimit="10" points="22.9,8.8 22.4,9.1 
		22.4,9.4 22.9,9.1 	"/>
	<polygon display="inline" fill="#C9C49B" points="22.3,16 22.9,16 22.9,16.1 22.8,16.3 22.4,16.3 22.3,16.1 	"/>
	<polygon display="inline" fill="#C9C49B" points="23.5,16 24,16 24,16.1 24,16.3 23.6,16.3 23.5,16.1 	"/>
	<rect x="23.5" y="11.7" display="inline" fill="#C9C49B" width="0.4" height="0.2"/>
	<rect x="23.5" y="11.7" display="inline" fill="#C9C49B" width="0.4" height="0.2"/>
	<rect x="22.4" y="11.7" display="inline" fill="#C9C49B" width="0.4" height="0.2"/>
	
		<rect x="24.5" y="9.6" display="inline" fill="#FFFFFF" stroke="#C9C49B" stroke-width="3" stroke-miterlimit="10" width="0.1" height="6"/>
	<rect x="24.4" y="15.2" display="inline" fill="#C9C49B" width="0.4" height="0.2"/>
	<path display="inline" fill="#C9C49B" d="M24.6,16.1L24.6,16.1c-0.1,0-0.1-0.1-0.1-0.2v-0.3c0,0,0-0.1,0.1-0.1h0.1
		c0,0,0.1,0,0.1,0.1V16C24.7,16,24.7,16.1,24.6,16.1z"/>
	<path display="inline" fill="#C9C49B" d="M24.7,9.8h-0.2c-0.1,0-0.1,0-0.1-0.1V8.9c0-0.1,0-0.1,0.1-0.1h0.2c0.1,0,0.1,0,0.1,0.1
		v0.8C24.8,9.8,24.7,9.8,24.7,9.8z"/>
	<path display="inline" fill="#FFFFFF" stroke="#C9C49B" stroke-width="3" stroke-miterlimit="10" d="M24.8,9c0,0,0.2,0.1,0.2,0.3
		c0,0.3,0.1,0.4,0.1,0.6s0,0.2-0.1,0.3c-0.1,0-0.1-0.1-0.1-0.3c0-0.1,0.1-0.3,0.1-0.5C24.9,9.3,24.7,9.1,24.8,9
		C24.7,9,24.8,9,24.8,9z"/>
	
		<rect x="21.7" y="9.6" display="inline" fill="#FFFFFF" stroke="#C9C49B" stroke-width="3" stroke-miterlimit="10" width="0.1" height="6"/>
	<rect x="21.6" y="15.2" display="inline" fill="#C9C49B" width="0.4" height="0.2"/>
	<path display="inline" fill="#C9C49B" d="M21.8,16.1L21.8,16.1c0.1,0,0.1-0.1,0.1-0.2v-0.3c0,0,0-0.1-0.1-0.1h-0.1
		c0,0-0.1,0-0.1,0.1V16C21.7,16,21.7,16.1,21.8,16.1z"/>
	<path display="inline" fill="#C9C49B" d="M21.7,9.8h0.2c0.1,0,0.1,0,0.1-0.1V8.9c0-0.1,0-0.1-0.1-0.1h-0.2c-0.1,0-0.1,0-0.1,0.1
		v0.8C21.6,9.8,21.7,9.8,21.7,9.8z"/>
	<path display="inline" fill="#FFFFFF" stroke="#C9C49B" stroke-width="3" stroke-miterlimit="10" d="M21.6,9c0,0-0.2,0.1-0.2,0.3
		c0,0.3-0.1,0.4-0.1,0.6s0,0.2,0.1,0.3c0.1,0,0.1-0.1,0.1-0.3c0-0.1-0.1-0.3-0.1-0.5C21.5,9.3,21.7,9.1,21.6,9C21.7,9,21.6,9,21.6,9
		z"/>
	<path display="inline" fill="#FFFFFF" stroke="#C9C49B" stroke-width="3" stroke-miterlimit="10" d="M19.8,11.8l0.1,4.2
		c0,0.1,0,0.2-0.1,0.2h-0.4c-0.1-0.1-0.1-0.1-0.1-0.2l0-4.2l-0.1-4.2c0-0.2,0.1-0.3,0.3-0.3c0.1,0,0.2,0,0.2,0.1
		c0.1,0.1,0.1,0.1,0.1,0.2L19.8,11.8z"/>
	<path display="inline" fill="#FFFFFF" stroke="#C9C49B" stroke-width="3" stroke-miterlimit="10" d="M18.7,11.8l0.1,4.2
		c0,0.1,0,0.2-0.1,0.2h-0.4c-0.1-0.1-0.1-0.1-0.1-0.2l0-4.2l-0.1-4.2c0-0.2,0.1-0.3,0.3-0.3c0.1,0,0.2,0,0.2,0.1
		c0.1,0.1,0.1,0.1,0.1,0.2L18.7,11.8z"/>
</g>
<g id="Layer_1_1_">
</g>
<polygon fill="#C9C49B" points="18.4,14.3 17.4,13.7 16.3,14.3 16.3,11.5 18.4,11.5 "/>
</svg>
